ISO-10303-21;
HEADER;
/* Generated by software containing ST-Developer
 * from STEP Tools, Inc. (www.steptools.com) 
 */
/* OPTION: using custom renumber hook */

FILE_DESCRIPTION(
/* description */ ('STEP AP242 Edition 2',
'CAx-IF Rec.Pracs.---Representation and Presentation of Product Manufa
cturing Information (PMI)---4.0---2014-10-13',
'CAx-IF Rec.Pracs.---3D Tessellated Geometry---0.4---2014-09-14','2;1',
'CAx-IF Rec.Pracs.---User Defined Attributes---1.5---2016-08-15'),
/* implementation_level */ '2;1');

FILE_NAME(
/* name */ 'LCD_TFT_1.8_SPI_ST7735 parts - Part 301',
/* time_stamp */ '2026-07-28T20:40:58Z',
/* author */ (''),
/* organization */ (''),
/* preprocessor_version */ 'ST-DEVELOPER v20',
/* originating_system */ 'ONSHAPE BY PTC INC, 1.218',
/* authorisation */ '  ');

FILE_SCHEMA (('AP242_MANAGED_MODEL_BASED_3D_ENGINEERING_MIM_LF { 1 0 10303 442 3 1 4 }'));
ENDSEC;

DATA;
#10=SHAPE_REPRESENTATION_RELATIONSHIP('','',#415,#11);
#11=ADVANCED_BREP_SHAPE_REPRESENTATION('',(#413),#657);
#12=CYLINDRICAL_SURFACE('',#431,0.005);
#13=CYLINDRICAL_SURFACE('',#432,0.005);
#14=CIRCLE('',#426,0.005);
#15=CIRCLE('',#427,0.005);
#16=CIRCLE('',#429,0.005);
#17=CIRCLE('',#430,0.005);
#18=ORIENTED_EDGE('',*,*,#126,.F.);
#19=ORIENTED_EDGE('',*,*,#127,.F.);
#20=ORIENTED_EDGE('',*,*,#128,.T.);
#21=ORIENTED_EDGE('',*,*,#129,.T.);
#22=ORIENTED_EDGE('',*,*,#130,.T.);
#23=ORIENTED_EDGE('',*,*,#131,.F.);
#24=ORIENTED_EDGE('',*,*,#132,.F.);
#25=ORIENTED_EDGE('',*,*,#127,.T.);
#26=ORIENTED_EDGE('',*,*,#133,.T.);
#27=ORIENTED_EDGE('',*,*,#134,.F.);
#28=ORIENTED_EDGE('',*,*,#135,.F.);
#29=ORIENTED_EDGE('',*,*,#131,.T.);
#30=ORIENTED_EDGE('',*,*,#136,.F.);
#31=ORIENTED_EDGE('',*,*,#137,.F.);
#32=ORIENTED_EDGE('',*,*,#138,.T.);
#33=ORIENTED_EDGE('',*,*,#139,.T.);
#34=ORIENTED_EDGE('',*,*,#140,.T.);
#35=ORIENTED_EDGE('',*,*,#141,.T.);
#36=ORIENTED_EDGE('',*,*,#142,.F.);
#37=ORIENTED_EDGE('',*,*,#137,.T.);
#38=ORIENTED_EDGE('',*,*,#143,.F.);
#39=ORIENTED_EDGE('',*,*,#144,.T.);
#40=ORIENTED_EDGE('',*,*,#145,.T.);
#41=ORIENTED_EDGE('',*,*,#146,.T.);
#42=ORIENTED_EDGE('',*,*,#147,.T.);
#43=ORIENTED_EDGE('',*,*,#148,.T.);
#44=ORIENTED_EDGE('',*,*,#149,.F.);
#45=ORIENTED_EDGE('',*,*,#139,.F.);
#46=ORIENTED_EDGE('',*,*,#150,.F.);
#47=ORIENTED_EDGE('',*,*,#129,.F.);
#48=ORIENTED_EDGE('',*,*,#151,.T.);
#49=ORIENTED_EDGE('',*,*,#134,.T.);
#50=ORIENTED_EDGE('',*,*,#142,.T.);
#51=ORIENTED_EDGE('',*,*,#152,.T.);
#52=ORIENTED_EDGE('',*,*,#143,.T.);
#53=ORIENTED_EDGE('',*,*,#153,.T.);
#54=ORIENTED_EDGE('',*,*,#147,.F.);
#55=ORIENTED_EDGE('',*,*,#138,.F.);
#56=ORIENTED_EDGE('',*,*,#154,.F.);
#57=ORIENTED_EDGE('',*,*,#155,.T.);
#58=ORIENTED_EDGE('',*,*,#156,.T.);
#59=ORIENTED_EDGE('',*,*,#157,.F.);
#60=ORIENTED_EDGE('',*,*,#158,.F.);
#61=ORIENTED_EDGE('',*,*,#159,.T.);
#62=ORIENTED_EDGE('',*,*,#160,.T.);
#63=ORIENTED_EDGE('',*,*,#161,.F.);
#64=ORIENTED_EDGE('',*,*,#128,.F.);
#65=ORIENTED_EDGE('',*,*,#132,.T.);
#66=ORIENTED_EDGE('',*,*,#135,.T.);
#67=ORIENTED_EDGE('',*,*,#151,.F.);
#68=ORIENTED_EDGE('',*,*,#145,.F.);
#69=ORIENTED_EDGE('',*,*,#162,.T.);
#70=ORIENTED_EDGE('',*,*,#140,.F.);
#71=ORIENTED_EDGE('',*,*,#136,.T.);
#72=ORIENTED_EDGE('',*,*,#149,.T.);
#73=ORIENTED_EDGE('',*,*,#163,.T.);
#74=ORIENTED_EDGE('',*,*,#126,.T.);
#75=ORIENTED_EDGE('',*,*,#150,.T.);
#76=ORIENTED_EDGE('',*,*,#133,.F.);
#77=ORIENTED_EDGE('',*,*,#130,.F.);
#78=ORIENTED_EDGE('',*,*,#152,.F.);
#79=ORIENTED_EDGE('',*,*,#141,.F.);
#80=ORIENTED_EDGE('',*,*,#162,.F.);
#81=ORIENTED_EDGE('',*,*,#144,.F.);
#82=ORIENTED_EDGE('',*,*,#153,.F.);
#83=ORIENTED_EDGE('',*,*,#146,.F.);
#84=ORIENTED_EDGE('',*,*,#163,.F.);
#85=ORIENTED_EDGE('',*,*,#148,.F.);
#86=ORIENTED_EDGE('',*,*,#164,.F.);
#87=ORIENTED_EDGE('',*,*,#165,.T.);
#88=ORIENTED_EDGE('',*,*,#166,.T.);
#89=ORIENTED_EDGE('',*,*,#167,.F.);
#90=ORIENTED_EDGE('',*,*,#168,.F.);
#91=ORIENTED_EDGE('',*,*,#169,.T.);
#92=ORIENTED_EDGE('',*,*,#170,.T.);
#93=ORIENTED_EDGE('',*,*,#171,.F.);
#94=ORIENTED_EDGE('',*,*,#172,.T.);
#95=ORIENTED_EDGE('',*,*,#160,.F.);
#96=ORIENTED_EDGE('',*,*,#173,.F.);
#97=ORIENTED_EDGE('',*,*,#171,.T.);
#98=ORIENTED_EDGE('',*,*,#161,.T.);
#99=ORIENTED_EDGE('',*,*,#172,.F.);
#100=ORIENTED_EDGE('',*,*,#170,.F.);
#101=ORIENTED_EDGE('',*,*,#174,.T.);
#102=ORIENTED_EDGE('',*,*,#154,.T.);
#103=ORIENTED_EDGE('',*,*,#174,.F.);
#104=ORIENTED_EDGE('',*,*,#169,.F.);
#105=ORIENTED_EDGE('',*,*,#175,.T.);
#106=ORIENTED_EDGE('',*,*,#176,.T.);
#107=ORIENTED_EDGE('',*,*,#155,.F.);
#108=ORIENTED_EDGE('',*,*,#175,.F.);
#109=ORIENTED_EDGE('',*,*,#168,.T.);
#110=ORIENTED_EDGE('',*,*,#177,.T.);
#111=ORIENTED_EDGE('',*,*,#156,.F.);
#112=ORIENTED_EDGE('',*,*,#176,.F.);
#113=ORIENTED_EDGE('',*,*,#167,.T.);
#114=ORIENTED_EDGE('',*,*,#157,.T.);
#115=ORIENTED_EDGE('',*,*,#177,.F.);
#116=ORIENTED_EDGE('',*,*,#166,.F.);
#117=ORIENTED_EDGE('',*,*,#178,.T.);
#118=ORIENTED_EDGE('',*,*,#173,.T.);
#119=ORIENTED_EDGE('',*,*,#159,.F.);
#120=ORIENTED_EDGE('',*,*,#179,.F.);
#121=ORIENTED_EDGE('',*,*,#164,.T.);
#122=ORIENTED_EDGE('',*,*,#179,.T.);
#123=ORIENTED_EDGE('',*,*,#158,.T.);
#124=ORIENTED_EDGE('',*,*,#178,.F.);
#125=ORIENTED_EDGE('',*,*,#165,.F.);
#126=EDGE_CURVE('',#180,#181,#216,.T.);
#127=EDGE_CURVE('',#182,#180,#217,.T.);
#128=EDGE_CURVE('',#182,#183,#218,.T.);
#129=EDGE_CURVE('',#183,#181,#219,.T.);
#130=EDGE_CURVE('',#180,#184,#220,.T.);
#131=EDGE_CURVE('',#185,#184,#221,.T.);
#132=EDGE_CURVE('',#182,#185,#222,.T.);
#133=EDGE_CURVE('',#184,#186,#223,.T.);
#134=EDGE_CURVE('',#187,#186,#224,.T.);
#135=EDGE_CURVE('',#185,#187,#225,.T.);
#136=EDGE_CURVE('',#188,#189,#226,.T.);
#137=EDGE_CURVE('',#190,#188,#227,.T.);
#138=EDGE_CURVE('',#190,#191,#228,.T.);
#139=EDGE_CURVE('',#191,#189,#229,.T.);
#140=EDGE_CURVE('',#188,#192,#230,.T.);
#141=EDGE_CURVE('',#192,#193,#231,.F.);
#142=EDGE_CURVE('',#190,#193,#232,.T.);
#143=EDGE_CURVE('',#194,#195,#233,.T.);
#144=EDGE_CURVE('',#194,#196,#234,.T.);
#145=EDGE_CURVE('',#196,#197,#235,.T.);
#146=EDGE_CURVE('',#197,#195,#236,.F.);
#147=EDGE_CURVE('',#191,#198,#237,.T.);
#148=EDGE_CURVE('',#198,#199,#238,.T.);
#149=EDGE_CURVE('',#189,#199,#239,.T.);
#150=EDGE_CURVE('',#181,#186,#240,.T.);
#151=EDGE_CURVE('',#183,#187,#241,.T.);
#152=EDGE_CURVE('',#193,#194,#14,.T.);
#153=EDGE_CURVE('',#195,#198,#15,.T.);
#154=EDGE_CURVE('',#200,#201,#242,.T.);
#155=EDGE_CURVE('',#200,#202,#243,.T.);
#156=EDGE_CURVE('',#202,#203,#244,.T.);
#157=EDGE_CURVE('',#204,#203,#245,.T.);
#158=EDGE_CURVE('',#205,#204,#246,.T.);
#159=EDGE_CURVE('',#205,#206,#247,.T.);
#160=EDGE_CURVE('',#206,#207,#248,.T.);
#161=EDGE_CURVE('',#201,#207,#249,.T.);
#162=EDGE_CURVE('',#196,#192,#16,.F.);
#163=EDGE_CURVE('',#199,#197,#17,.F.);
#164=EDGE_CURVE('',#208,#209,#250,.T.);
#165=EDGE_CURVE('',#208,#210,#251,.T.);
#166=EDGE_CURVE('',#210,#211,#252,.T.);
#167=EDGE_CURVE('',#212,#211,#253,.T.);
#168=EDGE_CURVE('',#213,#212,#254,.T.);
#169=EDGE_CURVE('',#213,#214,#255,.T.);
#170=EDGE_CURVE('',#214,#215,#256,.T.);
#171=EDGE_CURVE('',#209,#215,#257,.T.);
#172=EDGE_CURVE('',#215,#207,#258,.T.);
#173=EDGE_CURVE('',#209,#206,#259,.T.);
#174=EDGE_CURVE('',#214,#201,#260,.T.);
#175=EDGE_CURVE('',#213,#200,#261,.T.);
#176=EDGE_CURVE('',#212,#202,#262,.T.);
#177=EDGE_CURVE('',#211,#203,#263,.T.);
#178=EDGE_CURVE('',#210,#204,#264,.T.);
#179=EDGE_CURVE('',#208,#205,#265,.T.);
#180=VERTEX_POINT('',#547);
#181=VERTEX_POINT('',#548);
#182=VERTEX_POINT('',#550);
#183=VERTEX_POINT('',#552);
#184=VERTEX_POINT('',#556);
#185=VERTEX_POINT('',#558);
#186=VERTEX_POINT('',#562);
#187=VERTEX_POINT('',#564);
#188=VERTEX_POINT('',#568);
#189=VERTEX_POINT('',#569);
#190=VERTEX_POINT('',#571);
#191=VERTEX_POINT('',#573);
#192=VERTEX_POINT('',#577);
#193=VERTEX_POINT('',#579);
#194=VERTEX_POINT('',#583);
#195=VERTEX_POINT('',#584);
#196=VERTEX_POINT('',#586);
#197=VERTEX_POINT('',#588);
#198=VERTEX_POINT('',#592);
#199=VERTEX_POINT('',#594);
#200=VERTEX_POINT('',#603);
#201=VERTEX_POINT('',#604);
#202=VERTEX_POINT('',#606);
#203=VERTEX_POINT('',#608);
#204=VERTEX_POINT('',#610);
#205=VERTEX_POINT('',#612);
#206=VERTEX_POINT('',#614);
#207=VERTEX_POINT('',#616);
#208=VERTEX_POINT('',#625);
#209=VERTEX_POINT('',#626);
#210=VERTEX_POINT('',#628);
#211=VERTEX_POINT('',#630);
#212=VERTEX_POINT('',#632);
#213=VERTEX_POINT('',#634);
#214=VERTEX_POINT('',#636);
#215=VERTEX_POINT('',#638);
#216=LINE('',#546,#266);
#217=LINE('',#549,#267);
#218=LINE('',#551,#268);
#219=LINE('',#553,#269);
#220=LINE('',#555,#270);
#221=LINE('',#557,#271);
#222=LINE('',#559,#272);
#223=LINE('',#561,#273);
#224=LINE('',#563,#274);
#225=LINE('',#565,#275);
#226=LINE('',#567,#276);
#227=LINE('',#570,#277);
#228=LINE('',#572,#278);
#229=LINE('',#574,#279);
#230=LINE('',#576,#280);
#231=LINE('',#578,#281);
#232=LINE('',#580,#282);
#233=LINE('',#582,#283);
#234=LINE('',#585,#284);
#235=LINE('',#587,#285);
#236=LINE('',#589,#286);
#237=LINE('',#591,#287);
#238=LINE('',#593,#288);
#239=LINE('',#595,#289);
#240=LINE('',#597,#290);
#241=LINE('',#598,#291);
#242=LINE('',#602,#292);
#243=LINE('',#605,#293);
#244=LINE('',#607,#294);
#245=LINE('',#609,#295);
#246=LINE('',#611,#296);
#247=LINE('',#613,#297);
#248=LINE('',#615,#298);
#249=LINE('',#617,#299);
#250=LINE('',#624,#300);
#251=LINE('',#627,#301);
#252=LINE('',#629,#302);
#253=LINE('',#631,#303);
#254=LINE('',#633,#304);
#255=LINE('',#635,#305);
#256=LINE('',#637,#306);
#257=LINE('',#639,#307);
#258=LINE('',#641,#308);
#259=LINE('',#642,#309);
#260=LINE('',#644,#310);
#261=LINE('',#646,#311);
#262=LINE('',#648,#312);
#263=LINE('',#650,#313);
#264=LINE('',#652,#314);
#265=LINE('',#654,#315);
#266=VECTOR('',#446,1.);
#267=VECTOR('',#447,1.);
#268=VECTOR('',#448,1.);
#269=VECTOR('',#449,1.);
#270=VECTOR('',#452,1.);
#271=VECTOR('',#453,1.);
#272=VECTOR('',#454,1.);
#273=VECTOR('',#457,1.);
#274=VECTOR('',#458,1.);
#275=VECTOR('',#459,1.);
#276=VECTOR('',#462,1.);
#277=VECTOR('',#463,1.);
#278=VECTOR('',#464,1.);
#279=VECTOR('',#465,1.);
#280=VECTOR('',#468,1.);
#281=VECTOR('',#469,1.);
#282=VECTOR('',#470,1.);
#283=VECTOR('',#473,1.);
#284=VECTOR('',#474,1.);
#285=VECTOR('',#475,1.);
#286=VECTOR('',#476,1.);
#287=VECTOR('',#479,1.);
#288=VECTOR('',#480,1.);
#289=VECTOR('',#481,1.);
#290=VECTOR('',#484,1.);
#291=VECTOR('',#485,1.);
#292=VECTOR('',#492,1.);
#293=VECTOR('',#493,1.);
#294=VECTOR('',#494,1.);
#295=VECTOR('',#495,1.);
#296=VECTOR('',#496,1.);
#297=VECTOR('',#497,1.);
#298=VECTOR('',#498,1.);
#299=VECTOR('',#499,1.);
#300=VECTOR('',#512,1.);
#301=VECTOR('',#513,1.);
#302=VECTOR('',#514,1.);
#303=VECTOR('',#515,1.);
#304=VECTOR('',#516,1.);
#305=VECTOR('',#517,1.);
#306=VECTOR('',#518,1.);
#307=VECTOR('',#519,1.);
#308=VECTOR('',#522,1.);
#309=VECTOR('',#523,1.);
#310=VECTOR('',#526,1.);
#311=VECTOR('',#529,1.);
#312=VECTOR('',#532,1.);
#313=VECTOR('',#535,1.);
#314=VECTOR('',#538,1.);
#315=VECTOR('',#541,1.);
#316=EDGE_LOOP('',(#18,#19,#20,#21));
#317=EDGE_LOOP('',(#22,#23,#24,#25));
#318=EDGE_LOOP('',(#26,#27,#28,#29));
#319=EDGE_LOOP('',(#30,#31,#32,#33));
#320=EDGE_LOOP('',(#34,#35,#36,#37));
#321=EDGE_LOOP('',(#38,#39,#40,#41));
#322=EDGE_LOOP('',(#42,#43,#44,#45));
#323=EDGE_LOOP('',(#46,#47,#48,#49));
#324=EDGE_LOOP('',(#50,#51,#52,#53,#54,#55));
#325=EDGE_LOOP('',(#56,#57,#58,#59,#60,#61,#62,#63));
#326=EDGE_LOOP('',(#64,#65,#66,#67));
#327=EDGE_LOOP('',(#68,#69,#70,#71,#72,#73));
#328=EDGE_LOOP('',(#74,#75,#76,#77));
#329=EDGE_LOOP('',(#78,#79,#80,#81));
#330=EDGE_LOOP('',(#82,#83,#84,#85));
#331=EDGE_LOOP('',(#86,#87,#88,#89,#90,#91,#92,#93));
#332=EDGE_LOOP('',(#94,#95,#96,#97));
#333=EDGE_LOOP('',(#98,#99,#100,#101));
#334=EDGE_LOOP('',(#102,#103,#104,#105));
#335=EDGE_LOOP('',(#106,#107,#108,#109));
#336=EDGE_LOOP('',(#110,#111,#112,#113));
#337=EDGE_LOOP('',(#114,#115,#116,#117));
#338=EDGE_LOOP('',(#118,#119,#120,#121));
#339=EDGE_LOOP('',(#122,#123,#124,#125));
#340=FACE_BOUND('',#316,.T.);
#341=FACE_BOUND('',#317,.T.);
#342=FACE_BOUND('',#318,.T.);
#343=FACE_BOUND('',#319,.T.);
#344=FACE_BOUND('',#320,.T.);
#345=FACE_BOUND('',#321,.T.);
#346=FACE_BOUND('',#322,.T.);
#347=FACE_BOUND('',#323,.T.);
#348=FACE_BOUND('',#324,.T.);
#349=FACE_BOUND('',#325,.T.);
#350=FACE_BOUND('',#326,.T.);
#351=FACE_BOUND('',#327,.T.);
#352=FACE_BOUND('',#328,.T.);
#353=FACE_BOUND('',#329,.T.);
#354=FACE_BOUND('',#330,.T.);
#355=FACE_BOUND('',#331,.T.);
#356=FACE_BOUND('',#332,.T.);
#357=FACE_BOUND('',#333,.T.);
#358=FACE_BOUND('',#334,.T.);
#359=FACE_BOUND('',#335,.T.);
#360=FACE_BOUND('',#336,.T.);
#361=FACE_BOUND('',#337,.T.);
#362=FACE_BOUND('',#338,.T.);
#363=FACE_BOUND('',#339,.T.);
#364=PLANE('',#417);
#365=PLANE('',#418);
#366=PLANE('',#419);
#367=PLANE('',#420);
#368=PLANE('',#421);
#369=PLANE('',#422);
#370=PLANE('',#423);
#371=PLANE('',#424);
#372=PLANE('',#425);
#373=PLANE('',#428);
#374=PLANE('',#433);
#375=PLANE('',#434);
#376=PLANE('',#435);
#377=PLANE('',#436);
#378=PLANE('',#437);
#379=PLANE('',#438);
#380=PLANE('',#439);
#381=PLANE('',#440);
#382=PLANE('',#441);
#383=ADVANCED_FACE('',(#340),#364,.T.);
#384=ADVANCED_FACE('',(#341),#365,.F.);
#385=ADVANCED_FACE('',(#342),#366,.F.);
#386=ADVANCED_FACE('',(#343),#367,.T.);
#387=ADVANCED_FACE('',(#344),#368,.F.);
#388=ADVANCED_FACE('',(#345),#369,.F.);
#389=ADVANCED_FACE('',(#346),#370,.T.);
#390=ADVANCED_FACE('',(#347),#371,.T.);
#391=ADVANCED_FACE('',(#348,#349,#350),#372,.T.);
#392=ADVANCED_FACE('',(#351,#352),#373,.F.);
#393=ADVANCED_FACE('',(#353),#12,.T.);
#394=ADVANCED_FACE('',(#354),#13,.T.);
#395=ADVANCED_FACE('',(#355),#374,.T.);
#396=ADVANCED_FACE('',(#356),#375,.T.);
#397=ADVANCED_FACE('',(#357),#376,.F.);
#398=ADVANCED_FACE('',(#358),#377,.F.);
#399=ADVANCED_FACE('',(#359),#378,.T.);
#400=ADVANCED_FACE('',(#360),#379,.T.);
#401=ADVANCED_FACE('',(#361),#380,.F.);
#402=ADVANCED_FACE('',(#362),#381,.T.);
#403=ADVANCED_FACE('',(#363),#382,.F.);
#404=CLOSED_SHELL('',(#383,#384,#385,#386,#387,#388,#389,#390,#391,#392,
#393,#394,#395,#396,#397,#398,#399,#400,#401,#402,#403));
#405=STYLED_ITEM('',(#406),#413);
#406=PRESENTATION_STYLE_ASSIGNMENT((#407));
#407=SURFACE_STYLE_USAGE(.BOTH.,#408);
#408=SURFACE_SIDE_STYLE('',(#409));
#409=SURFACE_STYLE_FILL_AREA(#410);
#410=FILL_AREA_STYLE('',(#411));
#411=FILL_AREA_STYLE_COLOUR('',#412);
#412=COLOUR_RGB('',0.0431372549019608,0.0431372549019608,0.0431372549019608);
#413=MANIFOLD_SOLID_BREP('Part 301',#404);
#414=SHAPE_DEFINITION_REPRESENTATION(#662,#415);
#415=SHAPE_REPRESENTATION('Part 301',(#416),#657);
#416=AXIS2_PLACEMENT_3D('',#544,#442,#443);
#417=AXIS2_PLACEMENT_3D('',#545,#444,#445);
#418=AXIS2_PLACEMENT_3D('',#554,#450,#451);
#419=AXIS2_PLACEMENT_3D('',#560,#455,#456);
#420=AXIS2_PLACEMENT_3D('',#566,#460,#461);
#421=AXIS2_PLACEMENT_3D('',#575,#466,#467);
#422=AXIS2_PLACEMENT_3D('',#581,#471,#472);
#423=AXIS2_PLACEMENT_3D('',#590,#477,#478);
#424=AXIS2_PLACEMENT_3D('',#596,#482,#483);
#425=AXIS2_PLACEMENT_3D('',#599,#486,#487);
#426=AXIS2_PLACEMENT_3D('',#600,#488,#489);
#427=AXIS2_PLACEMENT_3D('',#601,#490,#491);
#428=AXIS2_PLACEMENT_3D('',#618,#500,#501);
#429=AXIS2_PLACEMENT_3D('',#619,#502,#503);
#430=AXIS2_PLACEMENT_3D('',#620,#504,#505);
#431=AXIS2_PLACEMENT_3D('',#621,#506,#507);
#432=AXIS2_PLACEMENT_3D('',#622,#508,#509);
#433=AXIS2_PLACEMENT_3D('',#623,#510,#511);
#434=AXIS2_PLACEMENT_3D('',#640,#520,#521);
#435=AXIS2_PLACEMENT_3D('',#643,#524,#525);
#436=AXIS2_PLACEMENT_3D('',#645,#527,#528);
#437=AXIS2_PLACEMENT_3D('',#647,#530,#531);
#438=AXIS2_PLACEMENT_3D('',#649,#533,#534);
#439=AXIS2_PLACEMENT_3D('',#651,#536,#537);
#440=AXIS2_PLACEMENT_3D('',#653,#539,#540);
#441=AXIS2_PLACEMENT_3D('',#655,#542,#543);
#442=DIRECTION('',(0.,0.,1.));
#443=DIRECTION('',(1.,0.,0.));
#444=DIRECTION('',(1.,0.,0.));
#445=DIRECTION('',(0.,0.,-1.));
#446=DIRECTION('',(0.,0.,-1.));
#447=DIRECTION('',(0.,1.,0.));
#448=DIRECTION('',(0.,0.,-1.));
#449=DIRECTION('',(0.,1.,0.));
#450=DIRECTION('',(0.,0.,1.));
#451=DIRECTION('',(1.,0.,0.));
#452=DIRECTION('',(1.,0.,0.));
#453=DIRECTION('',(0.,1.,0.));
#454=DIRECTION('',(1.,0.,0.));
#455=DIRECTION('',(1.,0.,0.));
#456=DIRECTION('',(0.,0.,-1.));
#457=DIRECTION('',(0.,0.,-1.));
#458=DIRECTION('',(0.,1.,0.));
#459=DIRECTION('',(0.,0.,-1.));
#460=DIRECTION('',(1.48690583655155E-16,0.,-1.));
#461=DIRECTION('',(-1.,0.,-1.48690583655155E-16));
#462=DIRECTION('',(-1.,0.,-1.48690583655155E-16));
#463=DIRECTION('',(0.,1.,0.));
#464=DIRECTION('',(-1.,0.,-1.48690583655155E-16));
#465=DIRECTION('',(0.,1.,0.));
#466=DIRECTION('',(-1.,0.,-1.38777878078145E-16));
#467=DIRECTION('',(-1.38777878078145E-16,0.,1.));
#468=DIRECTION('',(-1.38777878078145E-16,0.,1.));
#469=DIRECTION('',(0.,1.,0.));
#470=DIRECTION('',(-1.38777878078145E-16,0.,1.));
#471=DIRECTION('',(9.91270557701033E-17,0.,-1.));
#472=DIRECTION('',(-1.,0.,-9.91270557701033E-17));
#473=DIRECTION('',(-1.,0.,-9.91270557701033E-17));
#474=DIRECTION('',(0.,1.,0.));
#475=DIRECTION('',(-1.,0.,-9.91270557701033E-17));
#476=DIRECTION('',(0.,1.,0.));
#477=DIRECTION('',(-1.,0.,-1.38777878078145E-16));
#478=DIRECTION('',(-1.38777878078145E-16,0.,1.));
#479=DIRECTION('',(-1.38777878078145E-16,0.,1.));
#480=DIRECTION('',(0.,1.,0.));
#481=DIRECTION('',(-1.38777878078145E-16,0.,1.));
#482=DIRECTION('',(0.,0.,1.));
#483=DIRECTION('',(1.,0.,0.));
#484=DIRECTION('',(1.,0.,0.));
#485=DIRECTION('',(1.,0.,0.));
#486=DIRECTION('',(0.,-1.,0.));
#487=DIRECTION('',(1.,0.,0.));
#488=DIRECTION('',(0.,-1.,0.));
#489=DIRECTION('',(0.,0.,-1.));
#490=DIRECTION('',(0.,-1.,0.));
#491=DIRECTION('',(0.,0.,-1.));
#492=DIRECTION('',(-1.,0.,0.));
#493=DIRECTION('',(1.82602471155453E-16,0.,-1.));
#494=DIRECTION('',(-1.,0.,0.));
#495=DIRECTION('',(0.,0.,-1.));
#496=DIRECTION('',(1.,0.,0.));
#497=DIRECTION('',(0.,0.,-1.));
#498=DIRECTION('',(-1.,0.,0.));
#499=DIRECTION('',(1.82602471155453E-16,0.,-1.));
#500=DIRECTION('',(0.,-1.,0.));
#501=DIRECTION('',(1.,0.,0.));
#502=DIRECTION('',(0.,-1.,0.));
#503=DIRECTION('',(0.,0.,-1.));
#504=DIRECTION('',(0.,-1.,0.));
#505=DIRECTION('',(0.,0.,-1.));
#506=DIRECTION('',(0.,1.,0.));
#507=DIRECTION('',(0.,0.,1.));
#508=DIRECTION('',(0.,-1.,0.));
#509=DIRECTION('',(0.,0.,-1.));
#510=DIRECTION('',(0.,-1.,0.));
#511=DIRECTION('',(1.,0.,0.));
#512=DIRECTION('',(0.,0.,-1.));
#513=DIRECTION('',(1.,0.,0.));
#514=DIRECTION('',(0.,0.,-1.));
#515=DIRECTION('',(-1.,0.,0.));
#516=DIRECTION('',(1.82602471155453E-16,0.,-1.));
#517=DIRECTION('',(-1.,0.,0.));
#518=DIRECTION('',(1.82602471155453E-16,0.,-1.));
#519=DIRECTION('',(-1.,0.,0.));
#520=DIRECTION('',(0.,0.,-1.));
#521=DIRECTION('',(-1.,0.,0.));
#522=DIRECTION('',(0.,1.,0.));
#523=DIRECTION('',(0.,1.,0.));
#524=DIRECTION('',(1.,0.,1.82602471155453E-16));
#525=DIRECTION('',(1.82602471155453E-16,0.,-1.));
#526=DIRECTION('',(0.,1.,0.));
#527=DIRECTION('',(0.,0.,-1.));
#528=DIRECTION('',(-1.,0.,0.));
#529=DIRECTION('',(0.,1.,0.));
#530=DIRECTION('',(1.,0.,1.82602471155453E-16));
#531=DIRECTION('',(1.82602471155453E-16,0.,-1.));
#532=DIRECTION('',(0.,1.,0.));
#533=DIRECTION('',(0.,0.,-1.));
#534=DIRECTION('',(-1.,0.,0.));
#535=DIRECTION('',(0.,1.,0.));
#536=DIRECTION('',(1.,0.,0.));
#537=DIRECTION('',(0.,0.,-1.));
#538=DIRECTION('',(0.,1.,0.));
#539=DIRECTION('',(1.,0.,0.));
#540=DIRECTION('',(0.,0.,-1.));
#541=DIRECTION('',(0.,1.,0.));
#542=DIRECTION('',(0.,0.,1.));
#543=DIRECTION('',(1.,0.,0.));
#544=CARTESIAN_POINT('',(0.,0.,0.));
#545=CARTESIAN_POINT('',(-0.00498068705201149,-0.1065,-0.0157976350784302));
#546=CARTESIAN_POINT('',(-0.00498068705201149,-0.1045,-0.0157976350784302));
#547=CARTESIAN_POINT('',(-0.00498068705201149,-0.1045,-0.0145952701568603));
#548=CARTESIAN_POINT('',(-0.00498068705201149,-0.1045,-0.0180383175611496));
#549=CARTESIAN_POINT('',(-0.00498068705201149,-0.1065,-0.0145952701568603));
#550=CARTESIAN_POINT('',(-0.00498068705201149,-0.1065,-0.0145952701568603));
#551=CARTESIAN_POINT('',(-0.00498068705201149,-0.1065,-0.0157976350784302));
#552=CARTESIAN_POINT('',(-0.00498068705201149,-0.1065,-0.0180383175611496));
#553=CARTESIAN_POINT('',(-0.00498068705201149,-0.1065,-0.0180383175611496));
#554=CARTESIAN_POINT('',(-0.000478241359815002,-0.1065,-0.0145952701568603));
#555=CARTESIAN_POINT('',(-0.000478241359815002,-0.1045,-0.0145952701568603));
#556=CARTESIAN_POINT('',(0.00402420433238149,-0.1045,-0.0145952701568603));
#557=CARTESIAN_POINT('',(0.00402420433238149,-0.1065,-0.0145952701568603));
#558=CARTESIAN_POINT('',(0.00402420433238149,-0.1065,-0.0145952701568603));
#559=CARTESIAN_POINT('',(-0.000478241359815002,-0.1065,-0.0145952701568603));
#560=CARTESIAN_POINT('',(0.00402420433238149,-0.1065,-0.0157976350784302));
#561=CARTESIAN_POINT('',(0.00402420433238149,-0.1045,-0.0157976350784302));
#562=CARTESIAN_POINT('',(0.00402420433238149,-0.1045,-0.0180383175611496));
#563=CARTESIAN_POINT('',(0.00402420433238149,-0.1065,-0.0180383175611496));
#564=CARTESIAN_POINT('',(0.00402420433238149,-0.1065,-0.0180383175611496));
#565=CARTESIAN_POINT('',(0.00402420433238149,-0.1065,-0.0157976350784302));
#566=CARTESIAN_POINT('',(6.93889390390723E-18,-0.1065,-0.025));
#567=CARTESIAN_POINT('',(6.93889390390723E-18,-0.1045,-0.025));
#568=CARTESIAN_POINT('',(0.035,-0.1045,-0.025));
#569=CARTESIAN_POINT('',(-0.035,-0.1045,-0.025));
#570=CARTESIAN_POINT('',(0.035,-0.1065,-0.025));
#571=CARTESIAN_POINT('',(0.035,-0.1065,-0.025));
#572=CARTESIAN_POINT('',(6.93889390390723E-18,-0.1065,-0.025));
#573=CARTESIAN_POINT('',(-0.035,-0.1065,-0.025));
#574=CARTESIAN_POINT('',(-0.035,-0.1065,-0.025));
#575=CARTESIAN_POINT('',(0.035,-0.1065,-3.46944695195361E-18));
#576=CARTESIAN_POINT('',(0.035,-0.1045,-3.46944695195361E-18));
#577=CARTESIAN_POINT('',(0.035,-0.1045,0.02));
#578=CARTESIAN_POINT('',(0.035,-0.1065,0.02));
#579=CARTESIAN_POINT('',(0.035,-0.1065,0.02));
#580=CARTESIAN_POINT('',(0.035,-0.1065,-3.46944695195361E-18));
#581=CARTESIAN_POINT('',(0.,-0.1065,0.025));
#582=CARTESIAN_POINT('',(0.,-0.1065,0.025));
#583=CARTESIAN_POINT('',(0.03,-0.1065,0.025));
#584=CARTESIAN_POINT('',(-0.03,-0.1065,0.025));
#585=CARTESIAN_POINT('',(0.03,-0.1065,0.025));
#586=CARTESIAN_POINT('',(0.03,-0.1045,0.025));
#587=CARTESIAN_POINT('',(0.,-0.1045,0.025));
#588=CARTESIAN_POINT('',(-0.03,-0.1045,0.025));
#589=CARTESIAN_POINT('',(-0.03,-0.1065,0.025));
#590=CARTESIAN_POINT('',(-0.035,-0.1065,-1.04083408558608E-17));
#591=CARTESIAN_POINT('',(-0.035,-0.1065,-1.04083408558608E-17));
#592=CARTESIAN_POINT('',(-0.035,-0.1065,0.02));
#593=CARTESIAN_POINT('',(-0.035,-0.1045,0.02));
#594=CARTESIAN_POINT('',(-0.035,-0.1045,0.02));
#595=CARTESIAN_POINT('',(-0.035,-0.1045,-1.04083408558608E-17));
#596=CARTESIAN_POINT('',(-0.000478241359815002,-0.1065,-0.0180383175611496));
#597=CARTESIAN_POINT('',(-0.000478241359815002,-0.1045,-0.0180383175611496));
#598=CARTESIAN_POINT('',(-0.000478241359815002,-0.1065,-0.0180383175611496));
#599=CARTESIAN_POINT('',(0.,-0.1065,-6.93889390390723E-18));
#600=CARTESIAN_POINT('',(0.03,-0.1065,0.02));
#601=CARTESIAN_POINT('',(-0.03,-0.1065,0.02));
#602=CARTESIAN_POINT('',(-6.93889390390723E-18,-0.1065,0.019));
#603=CARTESIAN_POINT('',(0.02175,-0.1065,0.019));
#604=CARTESIAN_POINT('',(-0.02175,-0.1065,0.019));
#605=CARTESIAN_POINT('',(0.02175,-0.1065,0.));
#606=CARTESIAN_POINT('',(0.02175,-0.1065,-0.019));
#607=CARTESIAN_POINT('',(0.,-0.1065,-0.019));
#608=CARTESIAN_POINT('',(0.01975,-0.1065,-0.019));
#609=CARTESIAN_POINT('',(0.01975,-0.1065,3.46944695195361E-18));
#610=CARTESIAN_POINT('',(0.01975,-0.1065,0.017));
#611=CARTESIAN_POINT('',(-3.46944695195361E-18,-0.1065,0.017));
#612=CARTESIAN_POINT('',(-0.01975,-0.1065,0.017));
#613=CARTESIAN_POINT('',(-0.01975,-0.1065,3.46944695195361E-18));
#614=CARTESIAN_POINT('',(-0.01975,-0.1065,-0.019));
#615=CARTESIAN_POINT('',(0.,-0.1065,-0.019));
#616=CARTESIAN_POINT('',(-0.02175,-0.1065,-0.019));
#617=CARTESIAN_POINT('',(-0.02175,-0.1065,3.46944695195361E-18));
#618=CARTESIAN_POINT('',(0.,-0.1045,-6.93889390390723E-18));
#619=CARTESIAN_POINT('',(0.03,-0.1045,0.02));
#620=CARTESIAN_POINT('',(-0.03,-0.1045,0.02));
#621=CARTESIAN_POINT('',(0.03,-0.1065,0.02));
#622=CARTESIAN_POINT('',(-0.03,-0.1065,0.02));
#623=CARTESIAN_POINT('',(0.,-0.1085,-6.93889390390723E-18));
#624=CARTESIAN_POINT('',(-0.01975,-0.1085,-0.018));
#625=CARTESIAN_POINT('',(-0.01975,-0.1085,0.017));
#626=CARTESIAN_POINT('',(-0.01975,-0.1085,-0.019));
#627=CARTESIAN_POINT('',(-3.46944695195361E-18,-0.1085,0.017));
#628=CARTESIAN_POINT('',(0.01975,-0.1085,0.017));
#629=CARTESIAN_POINT('',(0.01975,-0.1085,3.46944695195361E-18));
#630=CARTESIAN_POINT('',(0.01975,-0.1085,-0.019));
#631=CARTESIAN_POINT('',(0.,-0.1085,-0.019));
#632=CARTESIAN_POINT('',(0.02175,-0.1085,-0.019));
#633=CARTESIAN_POINT('',(0.02175,-0.1085,0.));
#634=CARTESIAN_POINT('',(0.02175,-0.1085,0.019));
#635=CARTESIAN_POINT('',(-6.93889390390723E-18,-0.1085,0.019));
#636=CARTESIAN_POINT('',(-0.02175,-0.1085,0.019));
#637=CARTESIAN_POINT('',(-0.02175,-0.1085,3.46944695195361E-18));
#638=CARTESIAN_POINT('',(-0.02175,-0.1085,-0.019));
#639=CARTESIAN_POINT('',(0.,-0.1085,-0.019));
#640=CARTESIAN_POINT('',(0.,-0.1085,-0.019));
#641=CARTESIAN_POINT('',(-0.02175,-0.1085,-0.019));
#642=CARTESIAN_POINT('',(-0.01975,-0.1085,-0.019));
#643=CARTESIAN_POINT('',(-0.02175,-0.1085,3.46944695195361E-18));
#644=CARTESIAN_POINT('',(-0.02175,-0.1085,0.019));
#645=CARTESIAN_POINT('',(-6.93889390390723E-18,-0.1085,0.019));
#646=CARTESIAN_POINT('',(0.02175,-0.1085,0.019));
#647=CARTESIAN_POINT('',(0.02175,-0.1085,0.));
#648=CARTESIAN_POINT('',(0.02175,-0.1085,-0.019));
#649=CARTESIAN_POINT('',(0.,-0.1085,-0.019));
#650=CARTESIAN_POINT('',(0.01975,-0.1085,-0.019));
#651=CARTESIAN_POINT('',(0.01975,-0.1085,3.46944695195361E-18));
#652=CARTESIAN_POINT('',(0.01975,-0.1085,0.017));
#653=CARTESIAN_POINT('',(-0.01975,-0.1085,-0.018));
#654=CARTESIAN_POINT('',(-0.01975,-0.1085,0.017));
#655=CARTESIAN_POINT('',(-3.46944695195361E-18,-0.1085,0.017));
#656=MECHANICAL_DESIGN_GEOMETRIC_PRESENTATION_REPRESENTATION('',(#405),
#657);
#657=(
GEOMETRIC_REPRESENTATION_CONTEXT(3)
GLOBAL_UNCERTAINTY_ASSIGNED_CONTEXT((#658))
GLOBAL_UNIT_ASSIGNED_CONTEXT((#661,#660,#659))
REPRESENTATION_CONTEXT('Part 301','TOP_LEVEL_ASSEMBLY_PART')
);
#658=UNCERTAINTY_MEASURE_WITH_UNIT(LENGTH_MEASURE(1.E-8),#661,
'DISTANCE_ACCURACY_VALUE','Maximum Tolerance applied to model');
#659=(
NAMED_UNIT(*)
SI_UNIT($,.STERADIAN.)
SOLID_ANGLE_UNIT()
);
#660=(
NAMED_UNIT(*)
PLANE_ANGLE_UNIT()
SI_UNIT($,.RADIAN.)
);
#661=(
LENGTH_UNIT()
NAMED_UNIT(*)
SI_UNIT($,.METRE.)
);
#662=PRODUCT_DEFINITION_SHAPE('','',#663);
#663=PRODUCT_DEFINITION('','',#665,#664);
#664=PRODUCT_DEFINITION_CONTEXT('',#671,'design');
#665=PRODUCT_DEFINITION_FORMATION_WITH_SPECIFIED_SOURCE('','',#667,
 .NOT_KNOWN.);
#666=PRODUCT_RELATED_PRODUCT_CATEGORY('','',(#667));
#667=PRODUCT('Part 301','Part 301','Part 301',(#669));
#668=PRODUCT_CATEGORY('','');
#669=PRODUCT_CONTEXT('',#671,'mechanical');
#670=APPLICATION_PROTOCOL_DEFINITION('international standard',
'ap242_managed_model_based_3d_engineering',2020,#671);
#671=APPLICATION_CONTEXT('managed model based 3d engineering');
ENDSEC;
END-ISO-10303-21;
